<svg id="Layer_1" xmlns="http://www.w3.org/2000/svg" viewBox="-1222 326.4 389.2 200"><style>.st0{fill:none}.st1,.st2{fill:#7d4900}.st2,.st3,.st4{fill-rule:evenodd;clip-rule:evenodd}.st3{fill:#fff}.st4{fill:#f6921e}.st5{fill:#fff}.st6{fill:#f6921e}</style><path class="st0" d="M-1222 326.4h389.2v200H-1222z"/><path class="st1" d="M-1080.2 437.6c-3.5 8.3-10.7 14.5-19.3 17.7 6.6 2.4 10.9 8.6 11.7 10.4 4.3-1.9 8.5-8.5 11.9-16.3.5-2 4.5-4.3 5.8.1.9-2.4 8-2.3 6.4 3.5-3 11.5-16.8 25.3-33.2 29.7-3 1.1-8.8-1.5-6.6-3.7 1.1-.9 4.7-3.6 6.2-5.2 1.7-4.7-6.2-14.4-13.1-15.6-8.6 1.2-17.4-1.3-23.9-5-2.5 2.7-15.6 13.3-29.5 9.4-2.2.8-5.2 10.4-5.2 17.5.3 2.8-4.7 6-6 3-1.7 4.1-9.8 3.2-8.9.4.4-20.1 16.9-35.1 18.7-36.8 3.2-2.4 8.9-.8 7.6 1.2-.6 1.9-2 3.7-1.6 4.7 4.6 2.4 14.5-.9 16.5-3.5-13.8-17.3-7-34.6 10.1-41.3-1.5-4.9-2.3-10.1-2.5-14 .1-1.2 1.3-2.3 2.8-2.2 9 .6 21.6 3.5 32.1 13.2 11.2.2 6.7-13.8 5.8-21.5-5.8 1.4-9-5.3-2.1-9.2-5.7-.6-3.9-7.6 3.9-7.7-1.6-4.4 2.5-6.3 5.7-5.3.2-3.2 4.6-4.1 7.4-2.4 3.1-2.5 8.1-1.9 10.4 3 5.1 1.2 9 10.5 13.3 10.3 6.1-.1 10.4-1.4 15.5-1.5 3.6 0 7.7 1.3 10.7 4.1 5.9 5.4 5.4 13.3 4.7 18.5-.5 3-7 3.8-8.3.4-.6-.9-.9-3-4.9-3.7-1.9-.2-5.4-.3-9.7 0 2.1 2.8 4.2 12.8 2.5 13.2-3.8.5-5.9-5.3-16.4-8.1-12.2-4-13.2.2-12.2 7.5.5 2.9 1 6.3 1.1 9.8 13.3 6.2 26.1 7.3 40.4 1.4 1-.4 1.5-.3 1.6.4.3 2.9-1.5 7.2-4.9 9.1-.7 3.8-4.6 8.8-9.5 10.5-7.9 9-24.8 9.2-34.7 3.6 0 .2-.1.3-.3.4m138.4-12.9c.4-.4.8-.8 1.2-1.1.8-.7 1.6-1.4 2.5-2.1 4.5-3.4 9.8-5.6 15.9-5.7 4.2-.1 7.4.7 9.8 2.2 2 1.2 3.4 2.8 4.4 4.7.3-.3.7-.6 1-.9 1.9-1.6 4.1-2.9 6.5-4l.6-.3c.1 0 .4-.1.6-.2 1-.4 2.1-.7 3.2-1 .4-.1.8-.2 1.1-.3.3-.1.7-.1 1.1-.2 1.6-.3 3.3-.5 5-.5h1.1c1.1 0 2.1.1 3.1.2.3 0 .4.1.5.1.8.1 1.6.3 2.4.5.5.1 1 .3 1.6.5l1.5.6c2.4 1.1 4.5 2.8 6 4.8.3.4.6.8.8 1.2.3.4.5.8.7 1.3 1.1 2.3 1.7 4.8 1.7 7.6 0 .9-.1 1.8-.2 2.8 0 .1 0 .3-.1.5-.1.8-.3 1.6-.5 2.4-.3 1.1-.7 2.1-1.1 3.2-.4 1-.9 2-1.5 3-2.9 4.9-7.4 8.7-12.7 10.9-.2.1-.4.2-.6.2-.2.1-.4.2-.6.2-1 .4-2.1.7-3.2 1-.3.1-.6.2-1 .2-.3.1-.7.1-1 .2-1.3.2-2.7.4-4.1.4h-1.1c-1.1 0-2.2-.1-3.3-.2-.3 0-.4-.1-.5-.1-.9-.1-1.7-.3-2.5-.5l-.9-.3c-.2-.1-.5-.2-.9-.3-1.2-.4-2.3-1-3.3-1.5-.2.2-.5.4-.7.5-.5.3-1 .6-1.6.9-1 .4-2.1.7-3.2.9-.6.1-1.2.2-1.9.2.6 1.3.9 2.7.9 4.2 0 .5 0 1-.1 1.4v.2c-.1.4-.1.8-.2 1.3l-1.8 7.7c-.1.5-.3 1-.5 1.5s-.4.9-.7 1.4c-1.4 2.2-3.5 3.8-5.9 4.6l-.2.1-.2.1c-.4.1-.8.2-1.3.3-.2 0-.3.1-.4.1-.1 0-.2 0-.4.1-.4.1-.7.1-1.1.1v.1h-1.5c-.9 0-1.8-.1-2.6-.3-.1 0-.3-.1-.4-.1-.5-.1-1-.3-1.5-.6-.5.2-1.1.4-1.8.5-.9.2-1.8.3-2.9.3h-.7c-.6 0-1.2 0-1.7-.1h-.2c-.2 0-.3 0-.5-.1-.1.1-.2.2-.2.3l-.1.1c-.2.3-.5.6-.7.9l-.9.9c-1.7 1.4-4 2.5-6.9 2.5h-.8c-.4 0-.9-.1-1.3-.2-.3-.1-.7-.2-.9-.3-.3-.1-.6-.3-.9-.4-1.4-.8-2.5-1.9-3.1-3.3-.1-.1-.1-.2-.1-.3 0 0-.1-.1-.1-.2-.1-.2-.1-.3-.2-.5h-6.9v-.1h-.4c-.5 0-1.1-.1-1.5-.3v.1c-.2.3-.3.6-.6.9-.2.3-.5.7-.7 1-.3.3-.5.6-.9.9-1.6 1.5-3.8 2.5-6.9 2.5h-.8c-.4 0-.9-.1-1.3-.2l-.9-.3c-.3-.1-.6-.2-.9-.4-1.4-.8-2.5-1.9-3.2-3.3-.1-.1-.1-.2-.1-.2s-.1-.1-.1-.2c-.1-.1-.1-.3-.2-.4h-7.1v-.1h-.3c-.4 0-.7-.1-1.1-.1-1.5-.3-2.9-.8-4.2-1.7h-.1c-.3.2-.6.4-.9.5-1.6.8-3.5 1.4-5.8 1.4h-1.1v-.1c-.8-.1-1.6-.2-2.4-.5-.2 0-.4-.1-.6-.2-.7-.3-1.3-.6-1.9-1-.1.1-.2.1-.3.2-.4.2-.8.4-1.1.6-.2.1-.5.3-.8.4-.3.1-.7.2-1 .3-1.8.5-4.3.6-6.9-.1-.2 0-.4-.1-.6-.2-.1-.1-.3-.1-.5-.2-.6-.3-1.2-.6-1.6-.9l-.1.1c-.3.1-.6.3-.9.4-1.6.7-3.3 1.2-5.1 1.2-.6 0-1.3 0-1.9-.1l-.3-.1c-.5-.1-1-.2-1.5-.4-.2-.1-.4-.1-.5-.2-.1 0-.3-.1-.5-.2-.5-.2-1-.5-1.5-.8l-.2.1c-.3.2-.6.4-.9.5-1 .5-2 .8-2.9.9-.9.1-1.8.2-2.6.1h-.8c-.8-.1-1.6-.2-2.5-.4-.2 0-.3-.1-.5-.2s-.4-.1-.5-.2c-.9-.4-1.8-.9-2.6-1.6l-.6-.6c-.2-.2-.4-.4-.6-.7-.9-1.2-1.4-2.7-1.3-4.5v-.7c0-.5.1-.9.3-1.3.4-1.3.7-2.3.9-3.2.4-1.4.5-1.8.6-2.3.7-2.4 1.3-4.7 1.5-5.5v-.2l.4-1.1h.1l.3-.6.1-.2.1-.2c.2-.4.5-.8.8-1.1l.9-.9c.3-.3.7-.6 1.1-.9 1.9-1.4 4.7-2.5 8.3-2.5h6.9c-.2-.8-.3-1.6-.3-2.4v-.6c0-.2 0-.4.1-.5.1-.9.4-1.7.8-2.6.1-.3.3-.6.5-.9l.6-.9c1-1.3 2.3-2.4 4-3.1.7-1.4 1.5-2.9 2.4-4.3 1-1.5 2-3.1 3.1-4.5 5.8-7.6 13.9-13.7 23.4-14.3 4.2-.1 7.5.7 9.9 2.2 2 1.2 3.4 2.8 4.4 4.7.3-.3.6-.6 1-.9 2-1.6 4.2-3 6.6-4l.6-.3c.1 0 .4-.1.6-.2 1-.4 2.1-.7 3.2-1 .4-.1.8-.2 1.1-.3.3-.1.7-.1 1.1-.2 1.6-.3 3.3-.5 5-.5h1.1c1.1 0 2.1.1 3.1.2.3 0 .4.1.5.1.8.1 1.6.3 2.4.5.5.1 1 .3 1.6.5l1.5.6c2.4 1.1 4.5 2.8 6 4.8.1.2.3.4.4.6.1.2.2.4.4.6.1.4.4.9.7 1.5"/><path class="st2" d="M-1163.3 430.2c.6-1.6 1.8-3.1 5-4.3-1.8-.4-5.7-.7-7.5-2.9 1.4-1.1 2.7-2 5.8-3.3-1.4-.2-3.8-.6-6.9-2.7 9.8-6.9 27.8-8.3 37.3-6.3-5 13.6-14.4 22.7-21.8 21.2-4.8 2.1-7.3.7-11.9-1.7"/><path class="st3" d="M-1075.3 431.1c7.9 6.2 17.6 6 25.4 1.9-5.2.5-11-.2-16.4-3.4 5.8 3 22.1 4.2 24.8-4.4-4.8 2.4-11.4 3.3-21.7.7 7.2.8 22.7.6 27.5-7.6-4.3 1.9-13.3 4.6-21.7 4-5.7-.4-11-2.2-15.2-4.2-.3 4.6-1.1 9.2-2.7 13"/><path class="st4" d="M-1056.3 422.9c-.2 1.4-.7 2.1-1.4 3.3-2.1 0-4-.1-5.5-.3 1.8.4 3.5.8 5 1-1.1 1.5-2.7 2.8-4.7 3.9-1.3-.3-2.5-.8-3.5-1.3 1 .6 2 1.1 3 1.5-2.4 1.2-5.2 2.1-8.3 2.4-1.3-.7-2.5-1.5-3.7-2.4 1.5-3.5 2.3-7.6 2.6-11.8 5.1 2.4 10.9 3.5 16.5 3.7"/><path class="st5" d="M-1072.6 363.8c-.1-.7-1-3.1-2.5-2.7-1.8.4 1.9 2.4 2.5 2.7m27 10.7c1.3-.2 4.3-.6 6.1-.6 7.8.1 11.9 8.9 11.6 15.2-.1 1.3-1.8 1.3-2.3.1-2.1-3.8-5-4.3-9.6-4.6-3.4-.2-7.5.1-11.2.2-.7 0-.9-.4-.8-.8.7-3 3.4-9 6.2-9.5"/><path class="st5" d="M-1084.2 374.3c.9-4.1 3.3-8.1 9-8.7-.7.5-1.9 3.3-1.8 4.1 2.1-4.8 8.5-5.9 9.8-1.5 0 0 4.4 4.5 5.4 5.4.3.2.7.5.5.7-.3.3-2-.4-2-.1 0 .9 3.4 1.8 9.3 1.4 1.8-.1 3.9-.1 6.3-.6-3.3 2.1-5.6 7.1-6 9.1-.1.5-1.1 1-1.4 1-10 .8-17.3 1.8-21.3-5.7-.4-.6-.1-1.3.3-1.4.9-.5 1.9-.5 3.3 0-3-2.5-9.6-.6-5.3 4.7-.3-.8-.5-1.8-.3-2.6 2.2 4.2 10.1 7.3 16.3 8.6 8.5 1.9 11.8 5.9 11.5 6.8-.3.3-.6-.2-.8-.3-7.6-7-36.6-4-32.8-20.9"/><path class="st2" d="M-1071.4 367.9c-.4.1-.7.5-.9.9.5-.2 1.2.4 1.5 1 .4.6.4 1.4 0 1.7-.4.3-1.1 0-1.6-.8.1.4.3.9.5 1.3 1 1.9 2.7 3.1 3.9 2.7 1.2-.4 1.5-2.3.5-4.2-.9-1.8-2.7-3-3.9-2.6m-61.5 121.7c-25.7 0-46.6 1.3-46.6 2.9 0 1.6 20.9 2.9 46.6 2.9 25.7 0 46.6-1.3 46.6-2.9 0-1.6-20.9-2.9-46.6-2.9"/><path class="st1" d="M-1093.3 418l2.4 7.1-25.6 41.7-41.7-26-.4-4.8 24.4-40.8 1.1-.4z"/><path class="st3" d="M-1112.2 410.2l16.4 9.6-23.7 37.8-35.9-22 21.2-35.1c1.2 6.8 3.6 14.7 8.6 18.9.9 3.9 3.5 6 6.1 6.7.6 2 1.8 5 3.5 4.7 3.2-4.7 5.1-14.6 3.8-20.6"/><path class="st3" d="M-1118.3 429.3l-73.2 1.6 72.1-3.9z"/><path class="st2" d="M-1116.2 430.8l-74 .6 74.9-3zm11.4 6.6l-50.5-.5 50.6-1.4z"/><path class="st3" d="M-1105.2 435.1l-74.5-1 76.5-2z"/><path class="st2" d="M-1103.3 433.8l-74.9-.3 75-1.6z"/><path class="st6" d="M-1047.1 375.8c1.5-.3 4.8-.6 6.7-.6 7 .1 11.3 6.5 12.5 12.7v1.3c-.1 1.3-1.8 1.3-2.3.1-2.1-3.8-5-4.3-9.6-4.6-3.4-.2-7.5.1-11.2.2-.7 0-.9-.4-.8-.8.5-2.2 2-5.8 3.8-8l.9-.3"/><path class="st4" d="M-1090.1 433c-1.4 0-3.7-.7-4.6-1.1 5.5-2.4 10.1-5.8 11.8-14.8-.2 5.2-.6 11.9-7.2 15.9m-10.1-22.9c-8.2-9.7-19.9-12.4-25-13.4 7.5 2.2 14.1 6.1 17.9 12.7h-.8l14.7 8.6 2.4 7-14.6 23.7c5.1-2 10.4-6.7 13.8-12.8-.1.6-2.3 7.6-7.1 12.2 4.3-2.7 8.4-7.6 11.2-13 0 0-.7 3.6-2.8 7.5 2.7-2.6 4.7-5.6 5.4-9-1.5-.1-3.7-.3-4.6-.5 4.8-1.6 11.8-10.6 11-22.9 1 6.1 1.2 13.5-1.5 18.9 4.7-6.4 5.1-16.9 2-27.1-2-6.6-5.5-13-6.7-20-2.4-7.1.8-15 5.8-16.8-.1-.1-6.9-3.2-8.9-.3-1 1.4.9 2.5 2.5 2.9-2.5-.2-9.6 1-9.9 3.1-.2 1.9 4.2 1.9 6 1.4-1.5.5-8 4.1-7.3 7.1.2 1.1 4.5.2 6.6-2-2.2 10.4 8.7 29-8.8 32l2.4 4.3-3.7-3.6z"/><path class="st2" d="M-1107.3 440.3l-31.2-.3 31.3-.9z"/><path class="st4" d="M-969.1 435c.7-2.6 3.1-5 5.8-5 3.3 0 3.9 2.3 3.2 4.9-.8 2.8-2.5 4.6-5.6 4.6-2.9.1-4.1-1.7-3.4-4.5m-13.1.4c-2.4 8.7 3.9 14.9 13.5 14.9 10.1 0 19.2-6.2 21.7-15.5 2.4-8.8-2.5-15.6-12.4-15.6-11.1 0-20 6.1-22.8 16.2z"/><path class="st4" d="M-1001.8 441.9c1.6-2 2.9-6.3 3.1-9.6.1-1.6-1.4-1.7-2.9 0-3.1 3.5-4.8 6.8-6 9.8 2.2 0 3.6-.1 5.8-.2m-19 8c-5.5 0-4.8-7.7.8-7.7 4.5-8.9 13.4-21.3 25.1-22.4 13.8-.2 11.2 12.3 7.6 21.4 3.1 0 4.8 2.6 4.2 5.2-.9 3-3.7 3.6-6.8 3.6-10.7-.1-20.2-.1-30.9-.1zm124.4-14.9c.7-2.6 3.1-5 5.8-5 3.3 0 3.9 2.3 3.2 4.9-.8 2.8-2.5 4.6-5.6 4.6-3 .1-4.1-1.7-3.4-4.5m-13.1.4c-2.4 8.7 3.9 14.9 13.4 14.9 10.1 0 19.2-6.2 21.7-15.5 2.4-8.8-2.5-15.6-12.4-15.6-11 0-20 6.1-22.7 16.2z"/><path class="st3" d="M-1005 472.1c-3.4 0-3.9-2.2-3.4-3.4l1.8-5.2c-2.1 2.2-3.5 4.1-5.6 6.3-1.6 1.7-2.7 2.3-5.5 2.3-4 0-4-2.3-3.5-3.6 1.4-3.9 2.7-7.5 4.1-11.4.5-1.3 2.5-3.2 5.6-3.1 2.8 0 3.5 2 2.9 3.3l-2.1 5.7c2.3-2.4 4.1-4.4 6.2-7 1.3-1.5 3.5-2.2 6.3-2 1.6 0 4.7.8 3.8 3.5-1.4 3.8-2.7 7.2-4.1 11.1-.6 1.2-3 3.5-6.5 3.5m-25.1 0c-2.9 0-4.6-1.6-3.8-3.7 1.3-3.1 2.3-6.3 3.4-9.4-.6-.2-2.5-.2-3.3 0-1.2 3.2-2.3 6.4-3.5 9.6-1.2 3.3-3.5 3.6-5.3 3.5-1.6-.1-5-.7-4-3.3 1.3-3.6 2.7-7.4 4-11 .6-1.6 2.8-3.8 7.3-3.8h10.4c4.3.1 5.5 2.8 4.6 5.1l-3.4 9.4c-.6 1.4-3.5 3.6-6.4 3.6m52.1 5.1c-2.7-.1-3.1-2.8-2.3-5.1-4.3 0-6.6.1-10.9.1-4.6 0-5.1-3-4.1-5.3 1.3-3.6 2.1-5.9 3.4-9.5.9-2.6 3.4-3.4 5.9-3.3 2.6 0 3.4 1.6 2.8 3.3l-3.6 9.8h3.7c1.2-3.3 2-6.6 3.2-9.8.8-1.9 2.3-3.3 5.7-3.2 3.1.1 4.3 1.9 3.8 3.1-1.2 3.3-2.2 6.6-3.4 9.9 1.7-.1 3.1.3 2.2 2.9-.5 1.3-1 2.7-1.5 4-.6 1.3-2 3.1-4.9 3.1m44.7-12.6c.9 0 1.5.9 1.2 2-.5 1.6-1.2 2-2.6 2-1.2 0-1.4-1.1-1.1-2.2.4-.9 1.3-1.8 2.5-1.8m-5.1-4.6c2 0 2.1-.6 4.1-.6 2 0 3.2.7 2.7 2.7-3.4-.6-9.7 0-11.6 4.9-1.3 3.4-.9 6 3.2 6h.7c3.2 0 4.3-1.3 5.6-2.6-.1 1.8 1.4 2.8 3.6 2.8h.4c2.9 0 6.3-1.5 7.1-4.3.8-2.6 1.6-5.1 2.4-7.7 1.6-5.2-2.5-7.7-7.9-7.7-2.4 0-10.4.5-11.5 4-.4 1.3 0 2.5 1.2 2.5zm-13.9 17.3c-2.7-.1-2.7-2.9-1.9-5.3-4.3 0-6.6.1-10.9.1-4.6 0-5.1-3-4.1-5.3 1.3-3.6 2.1-5.9 3.4-9.5.9-2.6 3.4-3.4 5.9-3.3 2.6 0 3.5 1.6 2.8 3.3l-3.6 9.8h3.7c1.2-3.3 2-6.6 3.2-9.8.8-1.9 2.3-3.3 5.7-3.2 3.1.1 4.3 1.9 3.8 3.1-1.2 3.3-2.2 6.6-3.4 9.9 1.7-.1 3.1.3 2.2 2.9-.5 1.3-1 2.7-1.5 4-.7 1.4-2.5 3.3-5.3 3.3"/><path class="st4" d="M-929 441.9c1.6-2 2.9-6.3 3.2-9.6.1-1.6-1.4-1.7-2.9 0-3.1 3.5-4.8 6.8-6 9.8 2.1 0 3.4-.1 5.7-.2m-19 8c-5.5 0-4.8-7.7.8-7.7 4.5-8.9 13.4-21.3 25.1-22.4 13.8-.2 11.2 12.3 7.6 21.4 3.2 0 4.8 2.6 4.2 5.2-.9 3-3.7 3.6-6.8 3.6-10.8-.1-20.2-.1-30.9-.1z"/><path class="st3" d="M-1086.5 367.8c-1.5.4-6.4 1.7-8 4.4-.6-.3-1-.7-1-1.3.3-1.9 6.1-3 9-3.1"/><path class="st5" d="M-1076.1 364.2c-.3-.2-2.2-3.7-3.7-2.4-1.5 1.2 2.3 2.8 2.3 2.8l1.4-.4z"/><path class="st3" d="M-1088.2 365.9c.8-.3 4.6-1.7 9.1-.6-.7-.4-7-3-8.9-.3-.2.3-.3.6-.2.9m-18.7 44.2c-3.8-6.9-10.4-11-18.1-13.3-2.4-.5-4.4-.7-5.8-.8-.7 5.4 1.7 12.8 6.5 19.4.5-2.7 1.2-8-1.1-13.3 3.5 5.1 3.4 11 3.5 16.3.2 1.8 2.1 3.4 3.4 3.4 1.1-2.5-.1-13.7-2.4-20.1 4.1 7.1 5.3 17.3 4.9 22.3 1.8-4.6 2.7-7.5 1.8-13.3-.8-3.5-2.2-7.1-3.3-9.1 1.3 1.2 2.3 2.8 3 4.3l7.6 4.2z"/></svg>