<svg id="svg2" xmlns="http://www.w3.org/2000/svg" viewBox="0 0 595.3 228"><style>.st0,.st1{fill:#fff;stroke:#fff}.st1{stroke-width:1.0682}.st2,.st3{fill:#e77956;stroke:#fff}.st3{stroke-width:1.0925}</style><path id="path4158" class="st0" d="M34.8 201.7c.7 1.6 13.8-.7 28.2 0 9 .9 37.9 12.4 44.6 12.6 23.3 1.4 30.2-7.6 30.8-16.1-.1-1.8-1.1-3.1-3.8-2.1-8.1 5.1-17.1 7.7-27.2 7.9-9 0-38-9-44.1-8.4-8.2-.3-30.1 3.1-28.5 6.1z"/><path id="path4160" class="st0" d="M81 83.3c-15.3 1.3-28 9.5-40.5 21.6-34.1 37-24.3 81.2 18.9 79.4 34.3-2.3 81-31.3 64.7-71.9-12-25.9-38-19.1-42.5-16.3-9.5 5-20.3 18.6-24.9 19.3-3.4.6-4.9-.4-5.8-1.9-1.8-6.1 2.4-9.5 6.6-12.6 10-6.4 15.8-9 23.2-11 11.7-3.5 20.5-3 31.5-.6 15.1 5 22.3 15.7 24.8 28.5 4 28.7-20.9 57.7-52.8 68.5-27.6 10.4-69.6 6.7-76.3-23-2.2-16 3.8-33.1 9.5-42.6 7.9-14.7 32.7-36.5 61.6-40 5-.4 4 2.4 2 2.6z"/><path id="path4171" class="st0" d="M157.7 138.3c1.7-1.1 7.7 1.3 11.3 5.5 2.2 2.6-8.2 14.9-7.7 28.8.2 9.9 8.9 9.9 15.7 7.3 13.8-6.2 20.3-20.1 24.5-35.5 1.2-3.5 5-7.5 6.6.5.4 12.7-2.3 40.5 11.4 41.7 2.5.7-9.4 7.8-10.7 3.8l-5.5-36.8c-4.3 8.6-8.7 17.2-19.5 26.3-12.4 12-29.2 11.8-28-1.2 4.1-37.5-2.5-38 1.9-40.4z"/><path id="path4183" class="st1" d="M273.6 137.9c-5.2-.1-10.7.8-15.9 2.6-18.4 6.2-29.9 21.6-25.8 34.5 4.2 12.8 22.4 18.2 40.8 12 18.4-6.2 29.9-21.6 25.8-34.5-2.9-8.8-12.5-14.4-24.9-14.6zm-5.8 5.7c12 .3 21.6 7.4 22.9 16.9 1.5 11.1-8.6 21.6-22.6 23.4-14 1.9-26.5-5.6-28-16.7s8.6-21.6 22.6-23.4c1.7-.1 3.4-.2 5.1-.2z"/><path id="path4190" class="st0" d="M312.9 79.1c.8-2.7 14.7 2 14.4 5.1-1.9 29.5-4.6 60.1-3.4 88.2 3.3-2.1 35.5-35.7 42.8-39.6 7.3-3.9 7.7 6.7 3.5 11-5.2 6.1-17.6 14-27 19.8 19.5 4.3 22.1 31.4 41 25.5.3 3.5-6.6 10.6-15.9 7-11.5-5-20.9-18.1-31.3-27.5-3.7 0-8.6 3.6-13.1 5.3l-.3 18.2-9-4.4c-.4-36.3 4-81.3-1.7-108.6z"/><path id="path4192" class="st0" d="M393.8 79.1c.8-2.7 14.7 2 14.4 5.1-1.9 29.5-4.6 60.1-3.4 88.2 3.3-2.1 35.5-35.7 42.8-39.6 7.3-3.9 7.7 6.7 3.5 11-5.2 6.1-17.6 14-27 19.8 19.5 4.3 22.1 31.4 41 25.5.3 3.5-6.6 10.6-15.9 7-11.5-5-20.9-18.1-31.3-27.5-3.7 0-8.6 3.6-13.1 5.3l-.3 18.2-9-4.4c-.4-36.3 4-81.3-1.7-108.6z"/><path id="path4194" class="st0" d="M533.7 172.2c-5.4 8.3-19.6 15.5-39 18-20 .5-20.6-11.4-19.7-19.6 2.2-9.6 5.8-13.8 12.4-20.3 6.6-6.4 18.7-13.5 27.5-14.5 10.5-1.4 15.2 4.6 17.8 9.8 4.3-5.7 6.4-6.1 7.6-4.4.6 11.8-4.3 32.8 9.8 45.3 1.9 2.7-1.2 4.1-8.6 4.8-4.3-1.3-4.6-4.3-5.4-9.1l-4.1-32.9c-6.5-9.3-13.5-9.6-24.4-6.6-7.9 2.4-14.8 7.5-20.3 17.2-3.3 6.2-4.4 12.7 1.6 20 4.9 5.7 13.6 7.2 23.5 3.5 15.1-5.1 20.9-15.3 21.3-11.2z"/><path id="path4196" class="st2" d="M421.4 54.9c-8.4-.3-10.1-5.6-8.9-8.2 6-8 17.1-17.7 17.8-21.4 1.7-9.1 7.5-13.2 12.5-16.3 5.6-6.2 12.9-11 20-8.2 6.7 3.1 6.2 12.9-.5 12.7L452 11.3c-4.4 0-9.1 2.8-10.7 10.8-.9 17.6-16.8 17.7-20.2 25.2-1.2 2.5 4.9 7.5.3 7.6z"/><path id="path4198" class="st2" d="M467.3 24.7c-3.7 3.2 4 13.5 12.2 11.7 23.7-1.4 44.4-2.3 61.5 3.1 11.4 3.9 29.6 21.8 32.5 60.8 2.2 34.5 5.5 68.4 18.4 96.2 2.5 2.7 4 .8 3.3-2.2-1.1-5.5-15-41.6-13.5-90.2-2.6-43.8-21.1-66.6-33.7-72.8-29.7-13.6-76.8-8.2-80.7-6.6z"/><path id="path4200" class="st2" d="M452.7 101.6c-1.4 1.1-.1 5.7 8.7 5.6 3.9-.4 6.8-1.5 8.6-4.1 2.1-5.1 2.6-22 4.2-32.8.5-1.5-9.4-5.2-10-4-3.5 5.1 1.9 26.1-4.7 33.1-1.5 1.7-4.7.2-6.8 2.2z"/><path id="path4202" class="st2" d="M533.7 64.9c-5-3.9-16.9-5.1-26.1.3-4.9 3.9-8.6 9.3-9.2 15 0 14.4 11.6 21.7 25.5 17.8-7 11.6-14.6 13.8-15.7 17.3-1.3 4.1.5 6.9 2.1 7.8 1.7.4 5.2-4.6 7.6-7.7 3.9-5 8.8-10 10.5-13.3 8.4-14.5-1.9-7.1-11.9-12.7-4.4-1.9-4.8-6.5-4.7-11.9C513.2 64 523 64.4 530.1 65c1.3 0 4.8 1.5 3.6-.1z"/><path id="path4206" class="st3" d="M456.2 27.2c-1-2.4 11.2 2.4 11.4 15.2-1.2 11-20.3 12.5-19.4 10.5 9.6-2.3 16.8-14 8-25.7z"/></svg>