<?xml version="1.0" encoding="utf-8"?>
<!-- Generator: Adobe Illustrator 19.2.0, SVG Export Plug-In . SVG Version: 6.00 Build 0)  -->
<svg version="1.1"
	 id="svg2" inkscape:export-filename="C:\Users\РџРљ\Desktop\РЅР°СЃС‚СЏ\drawing.png" inkscape:export-xdpi="486.59616" inkscape:export-ydpi="486.59616" inkscape:version="0.91 r13725" sodipodi:docname="drawing Р±РµР»С‹Р№.svg" xmlns:cc="http://creativecommons.org/ns#" xmlns:dc="http://purl.org/dc/elements/1.1/" xmlns:inkscape="http://www.inkscape.org/namespaces/inkscape" xmlns:rdf="http://www.w3.org/1999/02/22-rdf-syntax-ns#" xmlns:sodipodi="http://sodipodi.sourceforge.net/DTD/sodipodi-0.dtd" xmlns:svg="http://www.w3.org/2000/svg"
	 xmlns="http://www.w3.org/2000/svg" xmlns:xlink="http://www.w3.org/1999/xlink" x="0px" y="0px" viewBox="0 0 595.3 228"
	 style="enable-background:new 0 0 595.3 228;" xml:space="preserve">
<style type="text/css">
	.st0{fill:#FFFFFF;stroke:#FFFFFF;}
	.st1{fill:#FFFFFF;stroke:#FFFFFF;stroke-width:1.0682;}
	.st2{fill:#E77956;stroke:#FFFFFF;}
	.st3{fill:#E77956;stroke:#FFFFFF;stroke-width:1.0925;}
</style>
<sodipodi:namedview  bordercolor="#666666" borderlayer="false" borderopacity="1.0" id="base" inkscape:current-layer="layer1" inkscape:cx="233.73256" inkscape:cy="630.71728" inkscape:document-units="px" inkscape:pageopacity="0.0" inkscape:pageshadow="2" inkscape:showpageshadow="false" inkscape:window-height="838" inkscape:window-maximized="1" inkscape:window-width="1600" inkscape:window-x="-8" inkscape:window-y="-8" inkscape:zoom="0.43213479" pagecolor="#ffffff" showborder="false" showgrid="false" showguides="false">
	</sodipodi:namedview>
<path id="path4158" inkscape:connector-curvature="0" sodipodi:nodetypes="cccccccc" class="st0" d="M34.8,201.7
	c0.7,1.6,13.8-0.7,28.2,0c9,0.9,37.9,12.4,44.6,12.6c23.3,1.4,30.2-7.6,30.8-16.1c-0.1-1.8-1.1-3.1-3.8-2.1
	c-8.1,5.1-17.1,7.7-27.2,7.9c-9,0-38-9-44.1-8.4C55.1,195.3,33.2,198.7,34.8,201.7L34.8,201.7z"/>
<path id="path4160" inkscape:connector-curvature="0" sodipodi:nodetypes="cccccccccccccccc" class="st0" d="M81,83.3
	c-15.3,1.3-28,9.5-40.5,21.6c-34.1,37-24.3,81.2,18.9,79.4c34.3-2.3,81-31.3,64.7-71.9c-12-25.9-38-19.1-42.5-16.3
	c-9.5,5-20.3,18.6-24.9,19.3c-3.4,0.6-4.9-0.4-5.8-1.9c-1.8-6.1,2.4-9.5,6.6-12.6c10-6.4,15.8-9,23.2-11c11.7-3.5,20.5-3,31.5-0.6
	c15.1,5,22.3,15.7,24.8,28.5c4,28.7-20.9,57.7-52.8,68.5c-27.6,10.4-69.6,6.7-76.3-23c-2.2-16,3.8-33.1,9.5-42.6
	C25.3,106,50.1,84.2,79,80.7C84,80.3,83,83.1,81,83.3L81,83.3z"/>
<path id="path4171" inkscape:connector-curvature="0" sodipodi:nodetypes="cccccccccccc" class="st0" d="M157.7,138.3
	c1.7-1.1,7.7,1.3,11.3,5.5c2.2,2.6-8.2,14.9-7.7,28.8c0.2,9.9,8.9,9.9,15.7,7.3c13.8-6.2,20.3-20.1,24.5-35.5c1.2-3.5,5-7.5,6.6,0.5
	c0.4,12.7-2.3,40.5,11.4,41.7c2.5,0.7-9.4,7.8-10.7,3.8l-5.5-36.8c-4.3,8.6-8.7,17.2-19.5,26.3c-12.4,12-29.2,11.8-28-1.2
	C159.9,141.2,153.3,140.7,157.7,138.3L157.7,138.3z"/>
<path id="path4183" inkscape:connector-curvature="0" class="st1" d="M273.6,137.9c-5.2-0.1-10.7,0.8-15.9,2.6
	c-18.4,6.2-29.9,21.6-25.8,34.5c0,0,0,0,0,0c4.2,12.8,22.4,18.2,40.8,12c0,0,0,0,0,0c18.4-6.2,29.9-21.6,25.8-34.5c0,0,0,0,0,0
	C295.6,143.7,286,138.1,273.6,137.9z M267.8,143.6c12,0.3,21.6,7.4,22.9,16.9c1.5,11.1-8.6,21.6-22.6,23.4c0,0,0,0,0,0
	c-14,1.9-26.5-5.6-28-16.7c0,0,0,0,0,0c-1.5-11.1,8.6-21.6,22.6-23.4C264.4,143.7,266.1,143.6,267.8,143.6z"/>
<path id="path4190" inkscape:connector-curvature="0" sodipodi:nodetypes="ccczccccccccc" class="st0" d="M312.9,79.1
	c0.8-2.7,14.7,2,14.4,5.1c-1.9,29.5-4.6,60.1-3.4,88.2c3.3-2.1,35.5-35.7,42.8-39.6c7.3-3.9,7.7,6.7,3.5,11
	c-5.2,6.1-17.6,14-27,19.8c19.5,4.3,22.1,31.4,41,25.5c0.3,3.5-6.6,10.6-15.9,7c-11.5-5-20.9-18.1-31.3-27.5
	c-3.7,0-8.6,3.6-13.1,5.3l-0.3,18.2l-9-4.4C314.2,151.4,318.6,106.4,312.9,79.1L312.9,79.1z"/>
<path id="path4192" inkscape:connector-curvature="0" sodipodi:nodetypes="ccczccccccccc" class="st0" d="M393.8,79.1
	c0.8-2.7,14.7,2,14.4,5.1c-1.9,29.5-4.6,60.1-3.4,88.2c3.3-2.1,35.5-35.7,42.8-39.6c7.3-3.9,7.7,6.7,3.5,11
	c-5.2,6.1-17.6,14-27,19.8c19.5,4.3,22.1,31.4,41,25.5c0.3,3.5-6.6,10.6-15.9,7c-11.5-5-20.9-18.1-31.3-27.5
	c-3.7,0-8.6,3.6-13.1,5.3l-0.3,18.2l-9-4.4C395.1,151.4,399.5,106.4,393.8,79.1L393.8,79.1z"/>
<path id="path4194" inkscape:connector-curvature="0" sodipodi:nodetypes="cccccccccccccccc" class="st0" d="M533.7,172.2
	c-5.4,8.3-19.6,15.5-39,18c-20,0.5-20.6-11.4-19.7-19.6c2.2-9.6,5.8-13.8,12.4-20.3c6.6-6.4,18.7-13.5,27.5-14.5
	c10.5-1.4,15.2,4.6,17.8,9.8c4.3-5.7,6.4-6.1,7.6-4.4c0.6,11.8-4.3,32.8,9.8,45.3c1.9,2.7-1.2,4.1-8.6,4.8c-4.3-1.3-4.6-4.3-5.4-9.1
	l-4.1-32.9c-6.5-9.3-13.5-9.6-24.4-6.6c-7.9,2.4-14.8,7.5-20.3,17.2c-3.3,6.2-4.4,12.7,1.6,20c4.9,5.7,13.6,7.2,23.5,3.5
	C527.5,178.3,533.3,168.1,533.7,172.2L533.7,172.2z"/>
<path id="path4196" inkscape:connector-curvature="0" sodipodi:nodetypes="ccccccccsc" class="st2" d="M421.4,54.9
	c-8.4-0.3-10.1-5.6-8.9-8.2c6-8,17.1-17.7,17.8-21.4c1.7-9.1,7.5-13.2,12.5-16.3c5.6-6.2,12.9-11,20-8.2c6.7,3.1,6.2,12.9-0.5,12.7
	l-10.3-2.2c-4.4,0-9.1,2.8-10.7,10.8c-0.9,17.6-16.8,17.7-20.2,25.2C419.9,49.8,426,54.8,421.4,54.9L421.4,54.9z"/>
<path id="path4198" inkscape:connector-curvature="0" sodipodi:nodetypes="ccccccccc" class="st2" d="M467.3,24.7
	c-3.7,3.2,4,13.5,12.2,11.7c23.7-1.4,44.4-2.3,61.5,3.1c11.4,3.9,29.6,21.8,32.5,60.8c2.2,34.5,5.5,68.4,18.4,96.2
	c2.5,2.7,4,0.8,3.3-2.2c-1.1-5.5-15-41.6-13.5-90.2c-2.6-43.8-21.1-66.6-33.7-72.8C518.3,17.7,471.2,23.1,467.3,24.7z"/>
<path id="path4200" inkscape:connector-curvature="0" sodipodi:nodetypes="cccccsc" class="st2" d="M452.7,101.6
	c-1.4,1.1-0.1,5.7,8.7,5.6c3.9-0.4,6.8-1.5,8.6-4.1c2.1-5.1,2.6-22,4.2-32.8c0.5-1.5-9.4-5.2-10-4c-3.5,5.1,1.9,26.1-4.7,33.1
	C458,101.1,454.8,99.6,452.7,101.6z"/>
<path id="path4202" inkscape:connector-curvature="0" sodipodi:nodetypes="ccccccscccsc" class="st2" d="M533.7,64.9
	c-5-3.9-16.9-5.1-26.1,0.3c-4.9,3.9-8.6,9.3-9.2,15c0,14.4,11.6,21.7,25.5,17.8c-7,11.6-14.6,13.8-15.7,17.3
	c-1.3,4.1,0.5,6.9,2.1,7.8c1.7,0.4,5.2-4.6,7.6-7.7c3.9-5,8.8-10,10.5-13.3c8.4-14.5-1.9-7.1-11.9-12.7c-4.4-1.9-4.8-6.5-4.7-11.9
	c1.4-13.5,11.2-13.1,18.3-12.5C531.4,65,534.9,66.5,533.7,64.9L533.7,64.9z"/>
<path id="path4206" inkscape:connector-curvature="0" sodipodi:nodetypes="cccc" class="st3" d="M456.2,27.2
	c-1-2.4,11.2,2.4,11.4,15.2c-1.2,11-20.3,12.5-19.4,10.5C457.8,50.6,465,38.9,456.2,27.2z"/>
</svg>
